<svg width="11" height="12" viewBox="0 0 11 12" fill="none" xmlns="http://www.w3.org/2000/svg">
<path fill-rule="evenodd" clip-rule="evenodd" d="M10.5312 0.531372H0.46875C0.226758 0.531372 0.03125 0.72688 0.03125 0.968872V11.0314C0.03125 11.2734 0.226758 11.4689 0.46875 11.4689H10.5312C10.7732 11.4689 10.9688 11.2734 10.9688 11.0314V0.968872C10.9688 0.72688 10.7732 0.531372 10.5312 0.531372ZM9.98438 10.4845H1.01562V1.51575H9.98438V10.4845ZM8.53092 5.50793H6.84381C6.82604 5.50793 6.81236 5.45872 6.81236 5.39856V4.74231C6.81236 4.68215 6.82604 4.63293 6.84381 4.63293H8.53092C8.54869 4.63293 8.56236 4.68215 8.56236 4.74231V5.39856C8.56236 5.45872 8.54869 5.50793 8.53092 5.50793ZM9.4483 7.47669H6.90944C6.85611 7.47669 6.81236 7.42747 6.81236 7.36731V6.71106C6.81236 6.6509 6.85611 6.60168 6.90944 6.60168H9.4483C9.50162 6.60168 9.54537 6.6509 9.54537 6.71106V7.36731C9.54537 7.42747 9.50162 7.47669 9.4483 7.47669ZM2.16256 8.20129H1.56236C1.49947 8.20129 1.45026 8.14934 1.45572 8.08645C1.47399 7.73811 1.5763 7.39937 1.75391 7.09915C1.93151 6.79894 2.17914 6.54616 2.47565 6.36243C2.22818 6.08899 2.07779 5.72805 2.07779 5.3302C2.07779 4.48391 2.76002 3.79895 3.60084 3.79895C4.44166 3.79895 5.12389 4.48391 5.12389 5.3302C5.1248 5.71188 4.98288 6.08009 4.72604 6.36243C5.30846 6.72336 5.70768 7.35774 5.74596 8.08645C5.7467 8.10127 5.74442 8.11608 5.73926 8.12999C5.73409 8.14389 5.72615 8.15661 5.71592 8.16735C5.70569 8.17809 5.69338 8.18664 5.67974 8.19248C5.6661 8.19831 5.65142 8.20131 5.63658 8.20129H5.03639C4.97897 8.20129 4.93248 8.15618 4.92838 8.09876C4.87643 7.40833 4.29947 6.86145 3.59947 6.86145C2.89947 6.86145 2.32252 7.40833 2.27057 8.09876C2.26647 8.15618 2.21998 8.20129 2.16256 8.20129Z" fill="#2F54EB"/>
</svg>
