<svg width="71" height="62" viewBox="0 0 71 62" fill="none" xmlns="http://www.w3.org/2000/svg">
<path d="M70.1637 57.875L37.6637 1.625C37.1793 0.789062 36.3434 0.375 35.4997 0.375C34.6559 0.375 33.8122 0.789062 33.3356 1.625L0.835598 57.875C-0.12534 59.5469 1.07779 61.625 2.99966 61.625H67.9997C69.9215 61.625 71.1247 59.5469 70.1637 57.875ZM32.9997 23.5C32.9997 23.1562 33.2809 22.875 33.6247 22.875H37.3747C37.7184 22.875 37.9997 23.1562 37.9997 23.5V37.875C37.9997 38.2188 37.7184 38.5 37.3747 38.5H33.6247C33.2809 38.5 32.9997 38.2188 32.9997 37.875V23.5ZM35.4997 51C34.5183 50.98 33.584 50.5761 32.8971 49.875C32.2102 49.1739 31.8254 48.2315 31.8254 47.25C31.8254 46.2685 32.2102 45.3261 32.8971 44.625C33.584 43.9239 34.5183 43.52 35.4997 43.5C36.481 43.52 37.4153 43.9239 38.1022 44.625C38.7892 45.3261 39.1739 46.2685 39.1739 47.25C39.1739 48.2315 38.7892 49.1739 38.1022 49.875C37.4153 50.5761 36.481 50.98 35.4997 51Z" fill="#FAAD14"/>
</svg>
