<svg width="71" height="71" viewBox="0 0 71 71" fill="none" xmlns="http://www.w3.org/2000/svg">
<path d="M35.9443 0.444336C16.6162 0.444336 0.944336 16.1162 0.944336 35.4443C0.944336 54.7725 16.6162 70.4443 35.9443 70.4443C55.2725 70.4443 70.9443 54.7725 70.9443 35.4443C70.9443 16.1162 55.2725 0.444336 35.9443 0.444336ZM48.8662 48.7412L43.71 48.7178L35.9443 39.46L28.1865 48.71L23.0225 48.7334C22.6787 48.7334 22.3975 48.46 22.3975 48.1084C22.3975 47.96 22.4521 47.8193 22.5459 47.7021L32.71 35.5928L22.5459 23.4912C22.4515 23.3767 22.3991 23.2334 22.3975 23.085C22.3975 22.7412 22.6787 22.46 23.0225 22.46L28.1865 22.4834L35.9443 31.7412L43.7021 22.4912L48.8584 22.4678C49.2021 22.4678 49.4834 22.7412 49.4834 23.0928C49.4834 23.2412 49.4287 23.3818 49.335 23.499L39.1865 35.6006L49.3428 47.71C49.4365 47.8271 49.4912 47.9678 49.4912 48.1162C49.4912 48.46 49.21 48.7412 48.8662 48.7412Z" fill="#FF4D4F"/>
</svg>
