<svg width="204" height="51" viewBox="0 0 204 51" fill="none" xmlns="http://www.w3.org/2000/svg">
<path d="M132.164 24.4636H139.278V29.0891H139.383C139.7 28.3664 140.174 27.6436 140.806 26.9691C141.386 26.2945 142.071 25.7645 142.861 25.2827C143.599 24.8009 144.442 24.4636 145.338 24.1745C146.181 23.9336 147.129 23.8372 148.078 23.7891C148.552 23.7891 149.079 23.8854 149.711 24.03V30.39C149.343 30.3418 148.921 30.2937 148.447 30.2455C147.92 30.1973 147.446 30.1491 147.024 30.1491C145.654 30.1491 144.495 30.39 143.546 30.7755C142.598 31.2091 141.807 31.7873 141.228 32.51C140.648 33.2328 140.226 34.0519 140.016 35.0155C139.752 35.9791 139.647 37.0392 139.647 38.1473V49.4862H132.164V24.4636Z" fill="#10239E"/>
<path d="M122.088 34.2446C121.719 32.51 121.087 31.2091 120.191 30.2937C119.295 29.4264 117.925 28.9927 116.134 28.9446C114.922 28.9446 113.921 29.1373 113.13 29.5227C112.34 29.9082 111.707 30.3418 111.233 30.8718C110.759 31.45 110.443 32.0282 110.232 32.6064C110.021 33.2328 109.916 33.7628 109.916 34.2446H122.088ZM109.916 38.581C110.021 40.7974 110.601 42.4356 111.76 43.3992C112.867 44.411 114.5 44.8928 116.608 44.8928C118.083 44.8928 119.401 44.5556 120.507 43.881C121.561 43.2065 122.246 42.4356 122.51 41.6646H129.096C128.043 44.6519 126.409 46.8201 124.249 48.0729C122.035 49.3738 119.401 50.0002 116.345 50.0002C114.184 50.0002 112.234 49.7111 110.548 49.0847C108.809 48.4583 107.334 47.5429 106.175 46.3865C104.963 45.2301 104.014 43.881 103.382 42.2428C102.75 40.6528 102.433 38.8701 102.433 36.9428C102.433 35.1119 102.75 33.3773 103.435 31.7391C104.067 30.1491 105.015 28.7518 106.28 27.5955C107.492 26.4391 108.967 25.4754 110.654 24.8009C112.34 24.1263 114.237 23.7891 116.345 23.7891C118.663 23.7891 120.665 24.2227 122.404 25.0418C124.091 25.8609 125.513 26.9691 126.62 28.3182C127.726 29.7155 128.517 31.3055 129.044 33.04C129.518 34.8228 129.676 36.6537 129.571 38.581H109.916Z" fill="#10239E"/>
<path d="M93.2413 49.4862H84.9156L75.6368 24.4636H83.4882L89.2319 41.4719H89.3373L95.0809 24.4636H102.511L93.2413 49.4862Z" fill="#10239E"/>
<path d="M68.1429 34.2446C67.774 32.51 67.1417 31.2091 66.2459 30.2937C65.3501 29.4264 63.98 28.9927 62.1885 28.9446C60.9765 28.9446 59.9753 29.1373 59.1849 29.5227C58.3945 29.9082 57.7622 30.3418 57.2879 30.8718C56.8137 31.45 56.4975 32.0282 56.2867 32.6064C56.076 33.2328 55.9706 33.7628 55.9706 34.2446H68.1429ZM55.9706 38.581C56.076 40.7974 56.6556 42.4356 57.8149 43.3992C58.9214 44.411 60.5549 44.8928 62.6627 44.8928C64.1381 44.8928 65.4555 44.5556 66.562 43.881C67.6159 43.2065 68.3009 42.4356 68.5644 41.6646H75.1512C74.0973 44.6519 72.4638 46.8201 70.3033 48.0729C68.0902 49.3738 65.4555 50.0002 62.3992 50.0002C60.2388 50.0002 58.2891 49.7111 56.6029 49.0847C54.864 48.4583 53.3886 47.5429 52.2293 46.3865C51.0173 45.2301 50.0689 43.881 49.4365 42.2428C48.8042 40.6528 48.488 38.8701 48.488 36.9428C48.488 35.1119 48.8042 33.3773 49.4892 31.7391C50.1215 30.1491 51.07 28.7518 52.3347 27.5955C53.5467 26.4391 55.0221 25.4754 56.7083 24.8009C58.3945 24.1263 60.2915 23.7891 62.3992 23.7891C64.7178 23.7891 66.7201 24.2227 68.459 25.0418C70.1452 25.8609 71.568 26.9691 72.6745 28.3182C73.7811 29.7155 74.5715 31.3055 75.0985 33.04C75.5727 34.8228 75.7308 36.6537 75.6254 38.581H55.9706Z" fill="#10239E"/>
<path d="M38.4396 13.8313H45.8167V49.4861H38.4396V13.8313Z" fill="#10239E"/>
<path d="M27.2828 26.0981C27.1243 25.2389 26.8073 24.4752 26.3319 23.7593C25.8036 23.0433 25.2226 22.4228 24.483 21.85C23.7434 21.325 22.8982 20.8954 21.9473 20.609C20.9965 20.3227 20.0456 20.1795 19.0419 20.1317C17.1402 20.1317 15.5554 20.4659 14.2876 21.1341C12.9669 21.8023 11.9104 22.6615 11.118 23.7593C10.2728 24.8571 9.69172 26.0981 9.32194 27.4823C8.95216 28.9142 8.79368 30.3461 8.79368 31.8258C8.79368 33.2577 8.95216 34.6896 9.32194 36.0261C9.69172 37.3625 10.2728 38.6035 11.118 39.6536C11.9104 40.7514 12.9669 41.6105 14.2876 42.2788C15.5554 42.947 17.1402 43.2334 19.0419 43.2334C21.5776 43.2334 23.5321 42.5652 24.9584 41.1332C26.3847 39.749 27.2828 37.8875 27.5997 35.5965H35.6293C35.418 37.7444 34.8369 39.6536 33.9917 41.3719C33.0936 43.0902 31.9315 44.5698 30.5052 45.7631C29.026 47.0041 27.3356 47.911 25.4339 48.5315C23.4793 49.1997 21.3663 49.4861 19.0419 49.4861C16.1365 49.4861 13.548 49.0565 11.2237 48.1496C8.89933 47.2428 6.99759 46.0018 5.41282 44.3789C3.82804 42.8038 2.61304 40.9423 1.76782 38.7944C0.922608 36.6466 0.5 34.3077 0.5 31.8258C0.5 29.296 0.922608 26.9572 1.76782 24.7616C2.61304 22.566 3.82804 20.6568 5.41282 19.0339C6.99759 17.4588 8.89933 16.1701 11.2237 15.2155C13.548 14.3086 16.1365 13.879 19.0419 13.8313C21.1021 13.8313 23.0567 14.1177 24.9056 14.6427C26.7545 15.2155 28.3921 15.9792 29.8712 17.0293C31.3504 18.0793 32.5654 19.3203 33.5162 20.8477C34.4671 22.3751 35.0482 24.1411 35.3123 26.0981H27.2828Z" fill="#10239E"/>
<path d="M195.491 17.0522H201.966V23.964H195.491V37.1715C195.491 41.6666 195.772 41.6533 196.334 42.1799C196.896 42.7065 198.02 42.9698 199.706 42.9698C200.268 43.0356 200.76 42.9698 201.322 42.904C201.814 42.904 202.493 42.5311 202.845 42.1799V49.4208C201.966 49.7925 200.971 50.2108 199.987 50.2108C198.933 50.2766 197.95 50.2766 196.966 50.2766C196.9 50.2766 195.788 50.2766 195.319 50.2108C194.178 50.0504 192.482 49.4538 191.428 48.8613C190.842 48.5322 189.32 47.0511 189.144 46.3928C188.617 45.57 188.324 43.9572 188.324 42.2457V23.964H182.118V17.0522H188.324V5.53247H195.491V17.0522Z" fill="#10239E"/>
<path fill-rule="evenodd" clip-rule="evenodd" d="M151.205 23.964H156.123V49.4867H163.992V23.964H169.823L169.823 17.0522H163.992L163.992 16.4597C163.992 15.0774 164.273 13.7646 164.835 13.1722C165.397 12.5798 166.381 12.2506 167.786 12.2506C169.05 12.2506 170.245 12.3164 171.439 12.4481V5.53248L168.769 5.53247L166.135 5.53248C162.797 5.53248 160.163 7.12708 158.582 8.65926C156.544 10.6341 156.123 12.9051 156.123 15.8673L156.123 17.0522H151.205L151.205 23.964ZM180.011 26.9262H172.352V49.4867H180.011V26.9262Z" fill="#10239E"/>
<path d="M180.011 20.574C180.011 22.5792 178.385 24.2047 176.38 24.2047H176.264C174.259 24.2047 172.633 22.5791 172.633 20.574C172.633 18.5688 174.259 16.9433 176.264 16.9433H176.38C178.385 16.9433 180.011 18.5688 180.011 20.574Z" fill="#40A9FF"/>
</svg>
