<svg width="32" height="40" viewBox="0 0 32 40" fill="none" xmlns="http://www.w3.org/2000/svg">
<rect width="16" height="16" transform="translate(0 12)" fill="white"/>
<path d="M3.74621 19.394V17.869C3.74621 17.8011 3.66943 17.7618 3.61585 17.8047L0.919425 19.9368C0.90984 19.9444 0.902093 19.954 0.896766 19.965C0.891439 19.976 0.888672 19.988 0.888672 20.0002C0.888672 20.0124 0.891439 20.0245 0.896766 20.0355C0.902093 20.0464 0.90984 20.0561 0.919425 20.0636L3.61585 22.1975C3.66764 22.2386 3.74621 22.2011 3.74621 22.1333V20.6083H10.6664V19.394H3.74621Z" fill="black"/>
<path fill-rule="evenodd" clip-rule="evenodd" d="M4.62716 12.9297H14.0474C14.3242 12.9297 14.5474 13.1529 14.5474 13.4297V26.5725C14.5474 26.8493 14.3242 27.0725 14.0474 27.0725H4.62716C4.35038 27.0725 4.12716 26.8493 4.12716 26.5725V23.5725C4.12716 23.5333 4.15931 23.5011 4.19859 23.5011H5.27002C5.30931 23.5011 5.34145 23.5333 5.34145 23.5725V25.8583H13.3331V20.6083V19.394V14.144H5.34145V16.4297C5.34145 16.469 5.30931 16.5011 5.27002 16.5011H4.19859C4.15931 16.5011 4.12716 16.469 4.12716 16.4297V13.4297C4.12716 13.1529 4.35038 12.9297 4.62716 12.9297Z" fill="black"/>
</svg>
