<svg width="96" height="16" viewBox="0 0 96 16" fill="none" xmlns="http://www.w3.org/2000/svg">
<path d="M14.1892 5.5169L10.222 4.94034L8.44859 1.34503C8.40015 1.24659 8.32046 1.1669 8.22203 1.11846C7.97515 0.996588 7.67515 1.09815 7.55171 1.34503L5.77828 4.94034L1.81109 5.5169C1.70171 5.53253 1.60171 5.58409 1.52515 5.66221C1.43259 5.75735 1.38159 5.88534 1.38334 6.01806C1.3851 6.15078 1.43948 6.27738 1.53453 6.37003L4.40484 9.16846L3.72671 13.12C3.71081 13.2119 3.72098 13.3065 3.75608 13.3929C3.79117 13.4794 3.84978 13.5542 3.92526 13.609C4.00074 13.6639 4.09007 13.6964 4.18312 13.7031C4.27617 13.7097 4.36922 13.6901 4.45171 13.6466L8.00015 11.781L11.5486 13.6466C11.6455 13.6981 11.758 13.7153 11.8658 13.6966C12.1377 13.6497 12.3205 13.3919 12.2736 13.12L11.5955 9.16846L14.4658 6.37003C14.5439 6.29346 14.5955 6.19346 14.6111 6.08409C14.6533 5.81065 14.4627 5.55753 14.1892 5.5169Z" fill="#FAAD14"/>
<path d="M34.1892 5.5169L30.222 4.94034L28.4486 1.34503C28.4002 1.24659 28.3205 1.1669 28.222 1.11846C27.9752 0.996588 27.6752 1.09815 27.5517 1.34503L25.7783 4.94034L21.8111 5.5169C21.7017 5.53253 21.6017 5.58409 21.5252 5.66221C21.4326 5.75735 21.3816 5.88534 21.3833 6.01806C21.3851 6.15078 21.4395 6.27738 21.5345 6.37003L24.4048 9.16846L23.7267 13.12C23.7108 13.2119 23.721 13.3065 23.7561 13.3929C23.7912 13.4794 23.8498 13.5542 23.9253 13.609C24.0007 13.6639 24.0901 13.6964 24.1831 13.7031C24.2762 13.7097 24.3692 13.6901 24.4517 13.6466L28.0002 11.781L31.5486 13.6466C31.6455 13.6981 31.758 13.7153 31.8658 13.6966C32.1377 13.6497 32.3205 13.3919 32.2736 13.12L31.5955 9.16846L34.4658 6.37003C34.5439 6.29346 34.5955 6.19346 34.6111 6.08409C34.6533 5.81065 34.4627 5.55753 34.1892 5.5169Z" fill="#FAAD14"/>
<path d="M54.1892 5.5169L50.222 4.94034L48.4486 1.34503C48.4002 1.24659 48.3205 1.1669 48.222 1.11846C47.9752 0.996588 47.6752 1.09815 47.5517 1.34503L45.7783 4.94034L41.8111 5.5169C41.7017 5.53253 41.6017 5.58409 41.5252 5.66221C41.4326 5.75735 41.3816 5.88534 41.3833 6.01806C41.3851 6.15078 41.4395 6.27738 41.5345 6.37003L44.4048 9.16846L43.7267 13.12C43.7108 13.2119 43.721 13.3065 43.7561 13.3929C43.7912 13.4794 43.8498 13.5542 43.9253 13.609C44.0007 13.6639 44.0901 13.6964 44.1831 13.7031C44.2762 13.7097 44.3692 13.6901 44.4517 13.6466L48.0002 11.781L51.5486 13.6466C51.6455 13.6981 51.758 13.7153 51.8658 13.6966C52.1377 13.6497 52.3205 13.3919 52.2736 13.12L51.5955 9.16846L54.4658 6.37003C54.5439 6.29346 54.5955 6.19346 54.6111 6.08409C54.6533 5.81065 54.4627 5.55753 54.1892 5.5169Z" fill="#FAAD14"/>
<path d="M74.1892 5.5169L70.222 4.94034L68.4486 1.34503C68.4002 1.24659 68.3205 1.1669 68.222 1.11846C67.9752 0.996588 67.6752 1.09815 67.5517 1.34503L65.7783 4.94034L61.8111 5.5169C61.7017 5.53253 61.6017 5.58409 61.5252 5.66221C61.4326 5.75735 61.3816 5.88534 61.3833 6.01806C61.3851 6.15078 61.4395 6.27738 61.5345 6.37003L64.4048 9.16846L63.7267 13.12C63.7108 13.2119 63.721 13.3065 63.7561 13.3929C63.7912 13.4794 63.8498 13.5542 63.9253 13.609C64.0007 13.6639 64.0901 13.6964 64.1831 13.7031C64.2762 13.7097 64.3692 13.6901 64.4517 13.6466L68.0002 11.781L71.5486 13.6466C71.6455 13.6981 71.758 13.7153 71.8658 13.6966C72.1377 13.6497 72.3205 13.3919 72.2736 13.12L71.5955 9.16846L74.4658 6.37003C74.5439 6.29346 74.5955 6.19346 74.6111 6.08409C74.6533 5.81065 74.4627 5.55753 74.1892 5.5169Z" fill="#FAAD14"/>
<path d="M94.1892 5.5169L90.222 4.94034L88.4486 1.34503C88.4002 1.24659 88.3205 1.1669 88.222 1.11846C87.9752 0.996588 87.6752 1.09815 87.5517 1.34503L85.7783 4.94034L81.8111 5.5169C81.7017 5.53253 81.6017 5.58409 81.5252 5.66221C81.4326 5.75735 81.3816 5.88534 81.3833 6.01806C81.3851 6.15078 81.4395 6.27738 81.5345 6.37003L84.4048 9.16846L83.7267 13.12C83.7108 13.2119 83.721 13.3065 83.7561 13.3929C83.7912 13.4794 83.8498 13.5542 83.9253 13.609C84.0007 13.6639 84.0901 13.6964 84.1831 13.7031C84.2762 13.7097 84.3692 13.6901 84.4517 13.6466L88.0002 11.781L91.5486 13.6466C91.6455 13.6981 91.758 13.7153 91.8658 13.6966C92.1377 13.6497 92.3205 13.3919 92.2736 13.12L91.5955 9.16846L94.4658 6.37003C94.5439 6.29346 94.5955 6.19346 94.6111 6.08409C94.6533 5.81065 94.4627 5.55753 94.1892 5.5169Z" fill="#FAAD14"/>
</svg>
